<svg xmlns="http://www.w3.org/2000/svg" viewBox="0 0 320 120" width="320" height="120" role="img">
  <!-- Generated by scripts/build_example_scenes.py. Do not edit: change the scene, then run the script. SPDX-License-Identifier: GPL-2.0-or-later -->
  <rect x="30.0" y="34.0" width="106.0" height="76.0" rx="4" fill="#ffffff" stroke="#dfe4ec" stroke-width="1.4"/>
  <rect x="40.0" y="44.0" width="44.0" height="5.0" rx="2.5" fill="#dfe4ec"/>
  <rect x="40.0" y="56.0" width="86.0" height="44.0" rx="2" fill="#d6e2fb"/>
  <rect x="74.0" y="23.0" width="106.0" height="76.0" rx="4" fill="#ffffff" stroke="#dfe4ec" stroke-width="1.4"/>
  <rect x="84.0" y="33.0" width="44.0" height="5.0" rx="2.5" fill="#dfe4ec"/>
  <rect x="84.0" y="45.0" width="86.0" height="44.0" rx="2" fill="#d6e2fb"/>
  <rect x="118.0" y="12.0" width="106.0" height="76.0" rx="4" fill="#ffffff" stroke="#2f6fed" stroke-width="1.4"/>
  <rect x="128.0" y="22.0" width="44.0" height="5.0" rx="2.5" fill="#48536a"/>
  <rect x="128.0" y="34.0" width="86.0" height="44.0" rx="2" fill="#d6e2fb"/>
  <path d="M192.2 56.1L188.6 59.1L184.3 60.9L181.2 64.2L178.7 68.1L174.6 67.7L170.5 67.4L166.4 68.4L163.0 71.0L160.2 69.0L158.2 66.2L156.1 63.5L154.0 60.8L155.2 58.5L155.0 55.9L153.4 53.9L151.5 52.4L154.7 48.7L158.5 45.7L162.9 43.4L167.7 42.6L170.7 44.8L174.4 45.4L178.0 45.2L181.7 45.2L182.8 49.0L185.6 51.9L189.3 53.4Z" fill="#7ea6f5" stroke="#2f6fed" stroke-width="1.4" stroke-linecap="round" stroke-linejoin="round"/>
</svg>
