<svg xmlns="http://www.w3.org/2000/svg" viewBox="0 0 320 120" width="320" height="120" role="img">
  <!-- Generated by scripts/build_example_scenes.py. Do not edit: change the scene, then run the script. SPDX-License-Identifier: GPL-2.0-or-later -->
  <path d="M24 96C74 96 84 44 138 40S236 60 300 28" fill="none" stroke="#d6e2fb" stroke-width="30" stroke-linecap="round" stroke-linejoin="round" opacity="0.75"/>
  <path d="M24 96C74 96 84 44 138 40S236 60 300 28" fill="none" stroke="#7ea6f5" stroke-width="30" stroke-linecap="round" stroke-linejoin="round" opacity="0.0"/>
  <path d="M24 96C74 96 84 44 138 40S236 60 300 28" fill="none" stroke="#2f6fed" stroke-width="2.4" stroke-linecap="round" stroke-linejoin="round"/>
  <circle cx="153.9" cy="70.8" r="3.4" fill="#2f6fed"/>
  <circle cx="199.9" cy="42.0" r="3.4" fill="#2f6fed"/>
  <circle cx="42.6" cy="55.0" r="3.4" fill="#2f6fed"/>
  <circle cx="105.8" cy="79.4" r="3.4" fill="#2f6fed"/>
  <circle cx="205.7" cy="67.7" r="3.4" fill="#2f6fed"/>
  <circle cx="174.0" cy="71.0" r="3.4" fill="#2f6fed"/>
  <circle cx="74.9" cy="58.6" r="3.4" fill="#2f6fed"/>
  <circle cx="97.3" cy="73.7" r="3.4" fill="#dfe4ec"/>
  <circle cx="207.9" cy="88.4" r="3.4" fill="#dfe4ec"/>
  <circle cx="78.3" cy="32.8" r="3.4" fill="#dfe4ec"/>
  <circle cx="68.3" cy="32.3" r="3.4" fill="#dfe4ec"/>
  <circle cx="220.8" cy="23.7" r="3.4" fill="#dfe4ec"/>
  <rect x="240.0" y="84.0" width="60.0" height="20.0" rx="4" fill="#ffffff" stroke="#dfe4ec" stroke-width="1.4"/>
  <rect x="250.0" y="92.0" width="40.0" height="5.0" rx="2.5" fill="#2f6fed"/>
</svg>
