<svg xmlns="http://www.w3.org/2000/svg" viewBox="0 0 320 120" width="320" height="120" role="img">
  <!-- Generated by scripts/build_example_scenes.py. Do not edit: change the scene, then run the script. SPDX-License-Identifier: GPL-2.0-or-later -->
  <rect x="16.0" y="10.0" width="168.0" height="100.0" rx="4" fill="#ffffff" stroke="#dfe4ec" stroke-width="1.4"/>
  <rect x="30.0" y="24.0" width="84.0" height="6.0" rx="3" fill="#48536a"/>
  <circle cx="34.0" cy="46.0" r="2.4" fill="#2f6fed"/>
  <rect x="44.0" y="44.0" width="118.0" height="5.0" rx="2.5" fill="#dfe4ec"/>
  <circle cx="34.0" cy="59.0" r="2.4" fill="#2f6fed"/>
  <rect x="44.0" y="57.0" width="96.0" height="5.0" rx="2.5" fill="#dfe4ec"/>
  <circle cx="34.0" cy="72.0" r="2.4" fill="#2f6fed"/>
  <rect x="44.0" y="70.0" width="74.0" height="5.0" rx="2.5" fill="#dfe4ec"/>
  <circle cx="34.0" cy="85.0" r="2.4" fill="#2f6fed"/>
  <rect x="44.0" y="83.0" width="118.0" height="5.0" rx="2.5" fill="#dfe4ec"/>
  <circle cx="34.0" cy="98.0" r="2.4" fill="#2f6fed"/>
  <rect x="44.0" y="96.0" width="96.0" height="5.0" rx="2.5" fill="#dfe4ec"/>
  <rect x="200.0" y="22.0" width="104.0" height="76.0" rx="4" fill="#d6e2fb" stroke="#dfe4ec" stroke-width="1.4"/>
  <path d="M282.7 60.7L278.4 62.3L275.0 65.3L273.7 69.7L270.4 72.9L263.1 72.3L255.9 73.9L248.6 75.3L242.2 79.0L238.0 77.7L234.4 75.3L230.3 73.3L225.8 73.9L225.6 67.6L224.0 61.5L222.2 55.5L220.5 49.4L226.4 48.2L232.3 46.8L237.4 43.2L243.5 42.1L251.1 42.8L258.6 42.3L265.7 45.1L273.4 45.6L276.4 49.4L280.6 51.6L281.7 56.2Z" fill="#7ea6f5" stroke="#2f6fed" stroke-width="1.6" stroke-linecap="round" stroke-linejoin="round"/>
</svg>
