<svg xmlns="http://www.w3.org/2000/svg" viewBox="0 0 320 120" width="320" height="120" role="img">
  <!-- Generated by scripts/build_example_scenes.py. Do not edit: change the scene, then run the script. SPDX-License-Identifier: GPL-2.0-or-later -->
  <path d="M16.0 20.0L68.0 16.0L70.0 56.0L20.0 60.0Z" fill="#dfe4ec" stroke="#ffffff" stroke-width="1.6" stroke-linecap="round" stroke-linejoin="round"/>
  <path d="M74.0 20.0L126.0 16.0L128.0 56.0L78.0 60.0Z" fill="#7ea6f5" stroke="#ffffff" stroke-width="1.6" stroke-linecap="round" stroke-linejoin="round"/>
  <path d="M132.0 20.0L184.0 16.0L186.0 56.0L136.0 60.0Z" fill="#2f6fed" stroke="#ffffff" stroke-width="1.6" stroke-linecap="round" stroke-linejoin="round"/>
  <path d="M190.0 20.0L242.0 16.0L244.0 56.0L194.0 60.0Z" fill="#dfe4ec" stroke="#ffffff" stroke-width="1.6" stroke-linecap="round" stroke-linejoin="round"/>
  <path d="M248.0 20.0L300.0 16.0L302.0 56.0L252.0 60.0Z" fill="#7ea6f5" stroke="#ffffff" stroke-width="1.6" stroke-linecap="round" stroke-linejoin="round"/>
  <path d="M16.0 64.0L68.0 60.0L70.0 100.0L20.0 104.0Z" fill="#7ea6f5" stroke="#ffffff" stroke-width="1.6" stroke-linecap="round" stroke-linejoin="round"/>
  <path d="M74.0 64.0L126.0 60.0L128.0 100.0L78.0 104.0Z" fill="#2f6fed" stroke="#ffffff" stroke-width="1.6" stroke-linecap="round" stroke-linejoin="round"/>
  <path d="M132.0 64.0L184.0 60.0L186.0 100.0L136.0 104.0Z" fill="#7ea6f5" stroke="#ffffff" stroke-width="1.6" stroke-linecap="round" stroke-linejoin="round"/>
  <path d="M190.0 64.0L242.0 60.0L244.0 100.0L194.0 104.0Z" fill="#2f6fed" stroke="#ffffff" stroke-width="1.6" stroke-linecap="round" stroke-linejoin="round"/>
  <path d="M248.0 64.0L300.0 60.0L302.0 100.0L252.0 104.0Z" fill="#2f6fed" stroke="#ffffff" stroke-width="1.6" stroke-linecap="round" stroke-linejoin="round"/>
  <rect x="96.0" y="106.0" width="32.0" height="8.0" fill="#dfe4ec"/>
  <rect x="128.0" y="106.0" width="32.0" height="8.0" fill="#d6e2fb"/>
  <rect x="160.0" y="106.0" width="32.0" height="8.0" fill="#7ea6f5"/>
  <rect x="192.0" y="106.0" width="32.0" height="8.0" fill="#2f6fed"/>
</svg>
