<svg xmlns="http://www.w3.org/2000/svg" viewBox="0 0 320 120" width="320" height="120" role="img">
  <!-- Generated by scripts/build_example_scenes.py. Do not edit: change the scene, then run the script. SPDX-License-Identifier: GPL-2.0-or-later -->
  <rect x="20.0" y="18.0" width="128.0" height="84.0" rx="4" fill="#ffffff" stroke="#dfe4ec" stroke-width="1.4"/>
  <path d="M115.6 63.2L114.0 64.7L112.8 66.6L112.1 68.8L111.5 70.9L111.7 73.3L110.6 75.3L110.9 77.6L111.7 79.7L107.0 80.6L102.2 80.2L97.5 81.0L92.7 80.9L87.9 81.5L83.2 82.2L78.7 83.8L74.2 85.5L71.1 83.5L67.6 82.7L64.9 80.3L61.8 78.4L58.2 77.9L54.7 76.8L51.8 74.7L48.6 73.0L48.7 69.6L48.8 66.2L47.5 62.9L47.4 59.4L48.5 56.2L50.7 53.5L52.3 50.5L53.5 47.3L56.4 44.4L59.9 42.6L63.7 41.6L67.5 40.3L71.2 39.0L74.4 36.8L78.0 35.2L81.1 32.7L84.5 35.1L87.7 37.7L91.7 38.3L95.5 40.0L99.6 40.2L103.6 41.2L107.6 41.4L111.6 40.9L112.2 43.8L111.6 46.6L111.9 49.5L111.8 52.4L112.4 55.2L113.7 57.8L114.2 60.6Z" fill="#d6e2fb" stroke="#2f6fed" stroke-width="1.6" stroke-linecap="round" stroke-linejoin="round"/>
  <path d="M162.0 60.0L190.0 60.0" fill="none" stroke="#2f6fed" stroke-width="2.0" stroke-linecap="round" stroke-linejoin="round"/>
  <path d="M185.6 62.4L190.0 60.0L185.6 57.6" fill="none" stroke="#2f6fed" stroke-width="2.0" stroke-linecap="round" stroke-linejoin="round"/>
  <rect x="204.0" y="18.0" width="100.0" height="84.0" rx="4" fill="#ffffff" stroke="#2f6fed" stroke-width="1.6"/>
  <rect x="204.0" y="18.0" width="100.0" height="16.0" rx="4" fill="#d6e2fb"/>
  <rect x="204.0" y="30.0" width="100.0" height="4.0" fill="#d6e2fb"/>
  <circle cx="214.0" cy="26.0" r="2.6" fill="#7ea6f5"/>
  <circle cx="223.0" cy="26.0" r="2.6" fill="#7ea6f5"/>
  <circle cx="232.0" cy="26.0" r="2.6" fill="#7ea6f5"/>
  <rect x="212.0" y="42.0" width="84.0" height="52.0" rx="3" fill="none" stroke="#7ea6f5" stroke-width="1.2"/>
  <path d="M240.0 42.0L240.0 94.0" fill="none" stroke="#7ea6f5" stroke-width="1.2" stroke-linecap="round" stroke-linejoin="round"/>
  <path d="M268.0 42.0L268.0 94.0" fill="none" stroke="#7ea6f5" stroke-width="1.2" stroke-linecap="round" stroke-linejoin="round"/>
  <path d="M212.0 68.0L296.0 68.0" fill="none" stroke="#7ea6f5" stroke-width="1.2" stroke-linecap="round" stroke-linejoin="round"/>
</svg>
